<svg xmlns="http://www.w3.org/2000/svg" width="179.34" height="179.34" viewBox="0 0 47.45 47.45"><defs><clipPath clipPathUnits="userSpaceOnUse" id="i"><path fill="none" d="M52.917 41.677h51.594v51.594H52.917z"/></clipPath><clipPath clipPathUnits="userSpaceOnUse" id="h"><path fill="none" stroke-width=".92" d="M55.562 44.323h47.45v47.45h-47.45z"/></clipPath><clipPath clipPathUnits="userSpaceOnUse" id="g"><path fill="none" stroke-width=".897" d="M55.563 44.323h46.302v46.302H55.563z"/></clipPath><clipPath clipPathUnits="userSpaceOnUse" id="f"><path fill="none" stroke-width=".92" d="M55.562 44.323h47.45v47.45h-47.45z"/></clipPath><clipPath clipPathUnits="userSpaceOnUse" id="e"><path fill="none" stroke-width=".897" d="M55.563 44.323h46.302v46.302H55.563z"/></clipPath><clipPath clipPathUnits="userSpaceOnUse" id="d"><path fill="none" stroke-width=".92" d="M55.562 44.323h47.45v47.45h-47.45z"/></clipPath><clipPath clipPathUnits="userSpaceOnUse" id="c"><path fill="none" stroke-width=".897" d="M55.563 44.323h46.302v46.302H55.563z"/></clipPath><clipPath clipPathUnits="userSpaceOnUse" id="b"><path fill="none" stroke-width=".92" d="M55.562 44.323h47.45v47.45h-47.45z"/></clipPath><clipPath clipPathUnits="userSpaceOnUse" id="a"><path transform="rotate(45)" fill="none" stroke-width=".897" d="M55.563 44.323h46.302v46.302H55.563z"/></clipPath></defs><path clip-path="url(#a)" transform="matrix(.72464 -.72464 .72464 .72464 -56.94 -45.422)" fill="#151515" d="M-36.37 77.573h88.635v51.594H-36.37z"/><path clip-path="url(#b)" fill="none" d="M55.563 44.323h47.45v47.45h-47.45z" transform="translate(-55.563 -44.323)"/><path clip-path="url(#c)" transform="matrix(1.0248 0 0 1.0248 -56.94 -45.422)" fill="none" d="M52.917 41.677h51.594v51.594H52.917z"/><path clip-path="url(#d)" fill="none" d="M55.563 44.323h47.45v47.45h-47.45z" transform="translate(-55.563 -44.323)"/><path clip-path="url(#e)" transform="matrix(1.0248 0 0 1.0248 -56.94 -45.422)" fill="none" d="M52.917 41.677h51.594v51.594H52.917z"/><path clip-path="url(#f)" fill="none" d="M55.563 44.323h47.45v47.45h-47.45z" transform="translate(-55.563 -44.323)"/><path clip-path="url(#g)" transform="matrix(1.0248 0 0 1.0248 -56.94 -45.422)" fill="none" d="M52.917 41.677h51.594v51.594H52.917z"/><path clip-path="url(#h)" fill="none" d="M55.563 44.323h47.45v47.45h-47.45z" transform="translate(-55.563 -44.323)"/><g><path fill="none" d="M0 0h47.45v47.45H0z"/><path fill="none" d="M0 0h47.45v47.45H0z"/><path fill="none" d="M-2.711-2.712h52.873v52.874H-2.71z"/><path fill="none" d="M0 0h47.45v47.45H0z"/><path fill="none" d="M0 0h47.45v47.45H0z"/><path fill="none" d="M0 0h47.45v47.45H0z"/><path fill="none" d="M-2.711-2.712h52.873v52.874H-2.71z"/><path fill="none" d="M0 0h47.45v47.45H0z"/><path fill="none" d="M0 0h47.45v47.45H0z"/><path fill="none" d="M0 0h47.45v47.45H0z"/><path fill="none" d="M-2.711-2.712h52.873v52.874H-2.71z"/><path fill="none" d="M0 0h47.45v47.45H0z"/><path fill="none" d="M0 0h47.45v47.45H0z"/><path fill="none" d="M0 0h47.45v47.45H0z"/><path fill="none" d="M0 0h47.45v47.45H0z"/><path fill="none" d="M0 0h47.45v47.45H0z"/><path fill="none" d="M-2.711-2.712h52.873v52.874H-2.71z"/><path fill="none" d="M0 0h47.45v47.45H0z"/><path fill="none" d="M0 0h47.45v47.45H0z"/><path fill="none" d="M0 0h47.45v47.45H0z"/><path fill="none" d="M-2.711-2.712h52.873v52.874H-2.71z"/><path fill="none" d="M0 0h47.45v47.45H0z"/><path fill="none" d="M0 0h47.45v47.45H0z"/><path fill="none" d="M0 0h47.45v47.45H0z"/><path fill="none" d="M-2.711-2.712h52.873v52.874H-2.71z"/><path fill="none" d="M0 0h47.45v47.45H0z"/><path fill="none" d="M0 0h47.45v47.45H0z"/><path fill="none" d="M0 0h47.45v47.45H0z"/><path fill="none" d="M0 0h47.45v47.45H0z"/><path fill="none" d="M0 0h47.45v47.45H0z"/><path fill="none" d="M0 0h47.45v47.45H0z"/><path fill="none" d="M-2.711-2.712h52.873v52.874H-2.71z"/><path fill="none" d="M0 0h47.45v47.45H0z"/><path fill="none" d="M0 0h47.45v47.45H0z"/><path fill="none" d="M0 0h47.45v47.45H0z"/><path fill="none" d="M-2.711-2.712h52.873v52.874H-2.71z"/><path fill="none" d="M0 0h47.45v47.45H0z"/><path fill="none" d="M0 0h47.45v47.45H0z"/><path fill="none" d="M0 0h47.45v47.45H0z"/><path fill="none" d="M-2.711-2.712h52.873v52.874H-2.71z"/><path fill="none" d="M0 0h47.45v47.45H0z"/><path fill="none" d="M0 0h47.45v47.45H0z"/><path fill="none" d="M0 0h47.45v47.45H0z"/><path fill="none" d="M0 0h47.45v47.45H0z"/><path fill="none" d="M0 0h47.45v47.45H0z"/><path fill="none" d="M0 0h47.45v47.45H0z"/><path fill="none" d="M0 0h47.45v47.45H0z"/><path fill="none" d="M0 0h47.45v47.45H0z"/><path fill="#f6cc3d" d="M5.354 69.583L69.701 5.237l4.95 4.95-64.347 64.346z"/><path d="M74.65 10.186L10.305 74.533" fill="none" stroke="#f1b339" stroke-width="1.002"/><path fill="#27a2f6" d="M.063 64.292L64.41-.055l4.95 4.95L5.012 69.24z"/><path d="M69.36 4.895L5.012 69.24" fill="none" stroke="#2784e2" stroke-width="1.002"/><g><path fill="#f63727" d="M-5.151 59.078L59.195-5.27l4.95 4.95L-.202 64.028z"/><path d="M64.145-.32L-.202 64.027" fill="none" stroke="#ce2d27" stroke-width="1.002"/></g></g><g transform="translate(-55.563 -44.323)"><circle cx="78.714" cy="67.474" r="14.215" clip-path="url(#i)" transform="matrix(.9197 0 0 .9197 6.895 5.993)" fill="none" stroke="#fff" stroke-width="7.286"/></g></svg>